<svg xmlns="http://www.w3.org/2000/svg" viewBox="0 0 62.42 62.42"><defs><style>.cls-1{fill:#2e799a;}</style></defs><title>Asset 14</title><g id="Layer_2" data-name="Layer 2"><g id="Layer_1-2" data-name="Layer 1"><path class="cls-1" d="M0,54.74A2.78,2.78,0,0,1,3.07,52.9c1.23.07,2.47,0,3.81,0V37.5c0-1.66.58-2.23,2.24-2.24H22.49V32.5c0-1,.28-1.38.89-1.4s.94.43.94,1.41V52.88H38.06V21.8H24.32v5.87a3.13,3.13,0,0,1,0,.61.83.83,0,0,1-.9.73.8.8,0,0,1-.84-.73,8.17,8.17,0,0,1-.05-1.21c0-1.73,0-3.46,0-5.18a1.72,1.72,0,0,1,1.95-1.95H38a1.73,1.73,0,0,1,2,2c0,1.87,0,3.74,0,5.61v.75h13.5c1.51,0,2.11.6,2.11,2.1V52.92H59.9a2.39,2.39,0,0,1,2,1,6.27,6.27,0,0,1,.5.88v7.68H0Zm1.83,5.78H60.59V55.67c0-.8-.12-.92-.92-.92H49.74a4.14,4.14,0,0,1-.61,0,.91.91,0,0,1,0-1.79,3.06,3.06,0,0,1,.61,0h4V30.14H40V52.92h1.23c1.36,0,2.72,0,4.09,0a.91.91,0,1,1,0,1.82H2.51a.59.59,0,0,0-.68.67ZM8.75,37.13V52.88h13.7V37.13Z"/><path class="cls-1" d="M31.45,0a2.33,2.33,0,0,1,1.47,1.42c.45,1,.94,2,1.46,3a1.1,1.1,0,0,0,.67.48c1.18.2,2.36.36,3.55.52A1.67,1.67,0,0,1,40.11,6.5a1.61,1.61,0,0,1-.53,1.81c-.84.82-1.67,1.67-2.53,2.46a1,1,0,0,0-.31,1c.22,1.18.41,2.36.61,3.54A1.56,1.56,0,0,1,36.71,17a1.52,1.52,0,0,1-1.72.12c-1.13-.59-2.26-1.2-3.4-1.76a1,1,0,0,0-.76,0c-1.09.53-2.16,1.11-3.24,1.68a1.65,1.65,0,0,1-2.5-1.82c.22-1.14.37-2.29.59-3.42a1,1,0,0,0-.31-1c-.85-.78-1.65-1.62-2.49-2.42a1.65,1.65,0,0,1-.57-1.85,1.71,1.71,0,0,1,1.57-1.14c1.19-.15,2.38-.31,3.55-.52A1,1,0,0,0,28,4.37c.52-1,1-1.95,1.46-2.95A2.33,2.33,0,0,1,31,0ZM26.93,15.31c1.06-.56,2.06-1,3-1.58a2.29,2.29,0,0,1,2.61,0c.93.55,1.91,1,3,1.57-.21-1.19-.35-2.28-.59-3.34a2.27,2.27,0,0,1,.75-2.4C36.48,8.83,37.21,8,38,7.17c-.09,0-.2-.07-.31-.09-1.11-.16-2.21-.34-3.31-.48a1.73,1.73,0,0,1-1.46-1c-.46-.95-.93-1.89-1.4-2.84-.08-.16-.18-.32-.32-.56-.49,1-1,1.85-1.35,2.77a2.57,2.57,0,0,1-2.53,1.8,27.93,27.93,0,0,0-2.89.42c.8.83,1.51,1.67,2.32,2.39A2.3,2.3,0,0,1,27.5,12C27.27,13.05,27.13,14.14,26.93,15.31Z"/><path class="cls-1" d="M17.51.69a14.27,14.27,0,0,1,1.92,1.05c.19.14.19.68.1,1a.72.72,0,0,1-1,.44,5.12,5.12,0,0,1-1.53-.72,1.14,1.14,0,0,1-.29-1C16.82,1.18,17.21,1,17.51.69Z"/><path class="cls-1" d="M16.55,9.62a5.83,5.83,0,0,1-.84-.07.82.82,0,0,1-.72-1,.81.81,0,0,1,.83-.8c.44,0,.88,0,1.33,0a.85.85,0,0,1,.93.83.88.88,0,0,1-.86,1,5,5,0,0,1-.67,0Z"/><path class="cls-1" d="M19.66,15.18c-.07.79-.9.82-1.47,1.14A1,1,0,0,1,17,16.26.88.88,0,0,1,17,14.89a7.69,7.69,0,0,1,1.54-.71C19.12,14,19.67,14.48,19.66,15.18Z"/></g></g></svg>