<svg xmlns="http://www.w3.org/2000/svg" viewBox="0 0 20.36 25.2"><defs><style>.cls-1{fill:#fff;}</style></defs><title>Asset 4</title><g id="Layer_2" data-name="Layer 2"><g id="Layer_1-2" data-name="Layer 1"><path class="cls-1" d="M.79,0H6.52a1,1,0,0,1,.74.92c.09,1.1,1.41,2,2.92,2S13,2,13.1.92A1,1,0,0,1,13.85,0h5.73c.58.16.78.47.78.92V16.44c0,.09,0,.18,0,.28h-.4c-1.46,0-2.93,0-4.39,0a1.12,1.12,0,0,0-1,.42c-.31.49.16,1,.92,1h4.88c0,.11,0,.19,0,.27v5.88a1.8,1.8,0,0,1,0,.22.9.9,0,0,1-1,.66H14.13a.93.93,0,0,1-.81-.33,1.22,1.22,0,0,1-.2-.58,2.44,2.44,0,0,0-1.94-1.86c-1.93-.47-3.78.44-3.93,1.93-.06.6-.41.84-1.21.84H1.24C.36,25.2,0,24.94,0,24.29c0-1.95,0-3.9,0-5.85,0-.08,0-.16,0-.27H4.87a1,1,0,0,0,1-.45c.28-.49-.2-1-1-1H0v-.28Q0,8.68,0,.92C0,.47.2.16.79,0Zm9.36,18.17h1.33c.57,0,1-.31,1-.71s-.39-.73-1-.73c-.87,0-1.75,0-2.62,0-.57,0-1,.31-1,.71s.41.72,1,.73Z"/></g></g></svg>