<svg xmlns="http://www.w3.org/2000/svg" viewBox="0 0 47.42 45.03"><defs><style>.cls-1{fill:#2e799a;}</style></defs><title>Asset 19</title><g id="Layer_2" data-name="Layer 2"><g id="Layer_1-2" data-name="Layer 1"><path class="cls-1" d="M47.42,44.65a1.47,1.47,0,0,1-1.1.38H25.9a1.26,1.26,0,0,1-.71-.12,1.09,1.09,0,0,1-.41-.7.59.59,0,0,1,.61-.57h20c.72,0,.72,0,.72-.71V10.45c0-.71,0-.71-.72-.71H38.77c-.79,0-1-.2-1-1V2c0-.61,0-.63-.62-.63q-12.52,0-25,0c-.6,0-.62,0-.62.62,0,6.38,0,12.75,0,19.13a3.3,3.3,0,0,1-.07.77.62.62,0,0,1-.74.49.61.61,0,0,1-.57-.62c0-.15,0-.31,0-.46V1.1c0-.88.2-1.09,1.08-1.09h26.9a1.64,1.64,0,0,1,1.22.56C40.66,1.92,42,3.3,43.37,4.67L46,7.3l1.4,1.42Zm-8.21-42a1.46,1.46,0,0,0,0,.22c0,1.66,0,3.33,0,5,0,.37.18.47.52.47h4.9a.73.73,0,0,0,.25-.05Z"/><path class="cls-1" d="M0,35.39q.95-2.46,1.9-4.92a11.58,11.58,0,0,1,.65-1.38,1.37,1.37,0,0,1,1.29-.66c.8,0,1.61,0,2.41,0,.38,0,.53-.14.51-.52a8.51,8.51,0,0,1,0-1,1.53,1.53,0,0,1,1.59-1.53h8A1.5,1.5,0,0,1,18,27c0,.31,0,.62,0,.93s.12.55.53.54c.75,0,1.51,0,2.26,0a1.57,1.57,0,0,1,1.65,1c.45,1.09.88,2.2,1.31,3.31.3.79.57,1.6.9,2.38a1.78,1.78,0,0,1-1.12,2.38.64.64,0,0,0-.53.76c0,1.57,0,3.14,0,4.72A1.87,1.87,0,0,1,21,45H19.82C14.54,45,9.27,45,4,45a3.45,3.45,0,0,1-1.37-.33,1.61,1.61,0,0,1-.87-1.57c0-1.6,0-3.21,0-4.81,0-.41-.08-.66-.53-.77-.6-.14-.9-.65-1.23-1.12Zm18.66.92H21c.56,0,1.11,0,1.67,0s.76-.32.56-.85c-.64-1.67-1.29-3.33-1.91-5a.81.81,0,0,0-.89-.62c-1.79,0-3.58,0-5.36,0-3.57,0-7.13,0-10.7,0a.92.92,0,0,0-1,.68c-.37,1.05-.78,2.08-1.18,3.12-.23.62-.48,1.23-.7,1.86s0,.77.53.82H9.47c1.09,0,1,.07,1-1a1.56,1.56,0,0,1,1-1.59,2.21,2.21,0,0,1,2.24.25,1.88,1.88,0,0,1,.57,1.73c0,.42.13.57.56.57C16.1,36.29,17.38,36.31,18.66,36.31Zm-6.32,7.31c2.82,0,5.65,0,8.47,0,.58,0,.76-.16.76-.68,0-1.59,0-3.17,0-4.76,0-.37-.17-.49-.51-.48-.54,0-1.08,0-1.62,0-1.55,0-3.11,0-4.67,0a.63.63,0,0,0-.49.26c-.44,1.24-.79,1.5-2.09,1.49a1.57,1.57,0,0,1-1.69-1.32.49.49,0,0,0-.57-.45H3.7c-.43,0-.56.16-.56.57,0,1.5,0,3,0,4.49,0,.74.13.86.86.86C6.79,43.63,9.57,43.62,12.34,43.62Zm.07-16.84c-1.06,0-2.13,0-3.19,0s-1.06-.13-1.06,1.06c0,.57,0,.59.6.6h6.75c1.18,0,1,.15,1.07-1.1,0-.43-.15-.57-.57-.56C14.81,26.79,13.61,26.78,12.41,26.78Zm-.55,9.78c0,.35,0,.7,0,1.06s.17.46.49.45.52-.07.52-.43c0-.72,0-1.44,0-2.17,0-.34-.18-.45-.49-.45s-.53.11-.52.48S11.86,36.2,11.86,36.56Z"/><path class="cls-1" d="M31.59,13.69a9.11,9.11,0,1,1-18.21-.09,9.11,9.11,0,1,1,18.21.09ZM21.76,9.12h.09c0-.88,0-1.76,0-2.64,0-.39-.07-.54-.52-.47a7.71,7.71,0,0,0-6.52,8.27,7.59,7.59,0,0,0,3.73,6c.49.31.54.28.75-.25.67-1.71,1.34-3.42,2-5.13a4.93,4.93,0,0,0,.46-1.49C21.8,12,21.76,10.55,21.76,9.12Zm4.79,5.25c-1,0-2.07,0-3.1,0a.6.6,0,0,0-.66.44q-1.11,2.94-2.26,5.88c-.13.34,0,.5.3.52a17,17,0,0,0,2.66.1A7.63,7.63,0,0,0,30.12,15c.09-.54.05-.58-.51-.58ZM23.16,9.46c0,1,0,2,0,3,0,.33.09.51.47.51h6.11c.38,0,.47-.16.41-.52A7.81,7.81,0,0,0,23.67,6c-.41-.07-.52,0-.52.44C23.17,7.45,23.16,8.45,23.16,9.46Z"/><path class="cls-1" d="M38.62,35.8v5.28c0,.88-.19,1.07-1,1.07h-2.4c-.57,0-.78-.19-.87-.75a3.38,3.38,0,0,1,0-.55V30.76a4.35,4.35,0,0,1,0-.51c.08-.63.33-.86,1-.88.8,0,1.61,0,2.41,0s.94.28.95,1C38.63,32.16,38.62,34,38.62,35.8Zm-3,0v4.12c0,.89,0,.89.88.89.68,0,.69,0,.69-.71,0-2.76,0-5.53,0-8.29,0-1.08.12-1-1-1-.46,0-.58.16-.58.59C35.67,32.82,35.66,34.29,35.66,35.75Z"/><path class="cls-1" d="M44,37.82v3.47c0,.67-.2.86-.86.86H40.55a.71.71,0,0,1-.82-.79c0-2.38,0-4.75,0-7.13,0-.54.28-.78.82-.79h2.64c.6,0,.8.21.8.81C44,35.44,44,36.63,44,37.82Zm-2.88,0v2c0,.94,0,.93.93.94.42,0,.56-.16.56-.57,0-1.47,0-2.93,0-4.39,0-1,0-1-1-1-.33,0-.46.14-.46.47C41.13,36.13,41.12,37,41.12,37.8Z"/><path class="cls-1" d="M37,27.33c-2,0-4.07,0-6.11,0a1.06,1.06,0,0,1-.65-.14.79.79,0,0,1-.25-.63,1,1,0,0,1,.48-.55,1.29,1.29,0,0,1,.63-.07H43.22c.51,0,.79.32.77.75s-.26.64-.79.64c-1.65,0-3.3,0-5,0Z"/><path class="cls-1" d="M37,22.51h6.39a.61.61,0,0,1,.6.59.64.64,0,0,1-.45.72,2,2,0,0,1-.64.07H31a2.85,2.85,0,0,1-.51,0,.65.65,0,0,1-.58-.72.63.63,0,0,1,.65-.64c.25,0,.49,0,.74,0Z"/><path class="cls-1" d="M33.16,39.43c0,.66,0,1.32,0,2s-.22.73-.74.74H29.65a.67.67,0,0,1-.74-.71c0-1.34,0-2.68,0-4a.69.69,0,0,1,.74-.73q1.41,0,2.82,0a.68.68,0,0,1,.7.75C33.17,38.1,33.16,38.76,33.16,39.43Zm-1.39,0V39c0-1,0-1-1-1h-.09c-.12.12-.34.24-.34.38,0,.64,0,1.29,0,1.93a.46.46,0,0,0,.23.34c.82.28,1.24,0,1.24-.86Z"/><path class="cls-1" d="M38.77,13.54H34.51c-.52,0-.85-.24-.87-.63a.78.78,0,0,1,.87-.76h8.61a.79.79,0,0,1,.83.46.66.66,0,0,1-.69.92H38.77Z"/><path class="cls-1" d="M38.83,19.08h4.3a1.19,1.19,0,0,1,.65.17.66.66,0,0,1-.18,1.1,2.25,2.25,0,0,1-.77.11h-8a2.15,2.15,0,0,1-.51,0,.69.69,0,0,1-.62-.74.66.66,0,0,1,.74-.62C35.87,19.09,37.35,19.08,38.83,19.08Z"/><path class="cls-1" d="M38.84,15.66c1.43,0,2.87,0,4.3,0a1.1,1.1,0,0,1,.75.32.61.61,0,0,1-.4,1,3,3,0,0,1-.73.09H34.94a3.17,3.17,0,0,1-.69-.08.66.66,0,1,1,.14-1.31Z"/></g></g></svg>