<svg xmlns="http://www.w3.org/2000/svg" viewBox="0 0 47.98 40.35"><defs><style>.cls-1{fill:#2e799a;}</style></defs><title>Asset 12</title><g id="Layer_2" data-name="Layer 2"><g id="Layer_1-2" data-name="Layer 1"><path class="cls-1" d="M48,30.85a21.16,21.16,0,0,1-6,1.82c-1.28.19-2.57.29-3.93.44,0-.32,0-.56,0-.8a14.51,14.51,0,0,0-.49-4.64,10.66,10.66,0,0,0-6.66-6.92l-.49-.18a8.86,8.86,0,0,0,2.66-6c2,0,4,0,6,0a9.57,9.57,0,0,1,2.13.28,9,9,0,0,1,6.71,7.42,2.3,2.3,0,0,0,.1.35Z"/><path class="cls-1" d="M36.34,33.83c0,1.28,0,2.56,0,3.84a.55.55,0,0,1-.37.6,21.19,21.19,0,0,1-5.73,1.67,37.83,37.83,0,0,1-17-1.45c-.88-.27-.89-.27-.88-1.21,0-2.24,0-4.49,0-6.74a8.86,8.86,0,0,1,8.44-8.68c2.46-.11,4.93-.1,7.39,0A9,9,0,0,1,36,28.34a16.71,16.71,0,0,1,.35,4.46C36.35,33.14,36.34,33.49,36.34,33.83Z"/><path class="cls-1" d="M15.64,14.58a8.8,8.8,0,0,0,2.64,6c-5.74,2.2-8,6.49-7.56,12.49-.9-.08-1.71-.13-2.53-.23A50.28,50.28,0,0,1,.53,31.13.62.62,0,0,1,0,30.42c0-2.27,0-4.55,0-6.83A9,9,0,0,1,7.38,14.7a6,6,0,0,1,1.11-.13c2.25,0,4.49,0,6.74,0Z"/><path class="cls-1" d="M17.33,14.27a7,7,0,1,1,7,7A7,7,0,0,1,17.33,14.27Z"/><path class="cls-1" d="M12,0a7,7,0,0,1,7,7,.87.87,0,0,1-.33.72,8.58,8.58,0,0,0-2.9,4.9.86.86,0,0,1-.41.54,6.69,6.69,0,0,1-7.22-.24A6.73,6.73,0,0,1,5,6.44,7,7,0,0,1,12,0Z"/><path class="cls-1" d="M36,0a7,7,0,1,1-2.63,13.55A.59.59,0,0,1,33,13a8.51,8.51,0,0,0-3.73-5.91A.59.59,0,0,1,29,6.48,7,7,0,0,1,36,0Z"/></g></g></svg>