<svg xmlns="http://www.w3.org/2000/svg" viewBox="0 0 60.73 60.69"><defs><style>.cls-1{fill:#2e799a;}</style></defs><title>Asset 13</title><g id="Layer_2" data-name="Layer 2"><g id="Layer_1-2" data-name="Layer 1"><path class="cls-1" d="M28.25,28.68a2.42,2.42,0,0,1-.54,1.6q-2.62,3.44-5.22,6.91l-.09.11-2.65,3.52-3.47,4.57-5.47,7.25c-.13.18-.27.34-.41.34a.61.61,0,0,1-.38-.21,30.12,30.12,0,0,1-6.16-7.72A29.73,29.73,0,0,1,.15,33.24,30.42,30.42,0,0,1,10.27,7.53,30,30,0,0,1,26.3.18l.89-.1h.08L27.93,0h.13c.13,0,.18.05.18.27V18.13C28.24,21.65,28.24,25.16,28.25,28.68Z"/><path class="cls-1" d="M60.71,28.09a2.18,2.18,0,0,1-.84.08H33a2.13,2.13,0,0,1-.62-.06h0a1.57,1.57,0,0,1-.08-.66V.84A2.59,2.59,0,0,1,32.31.1s0-.1.28-.1l.5,0A29.84,29.84,0,0,1,44.15,3.19a29.34,29.34,0,0,1,8.27,6.16,30.09,30.09,0,0,1,8.16,17.52c0,.26.06.47.1.69S60.76,28,60.71,28.09Z"/><path class="cls-1" d="M47.21,55.51c0,.1-.27.26-.65.5a31,31,0,0,1-13.19,4.52c-.7.07-1.44.1-2,.13l-.74,0a34.36,34.36,0,0,1-7.08-.82,27.32,27.32,0,0,1-6.2-2.2c-1.1-.56-2.19-1.17-3.14-1.72-.18-.1-.46-.26-.48-.36s.17-.34.3-.53l15.85-21a2.3,2.3,0,0,1,.41-.47h0a1.86,1.86,0,0,1,.41.45q8,10.37,16.06,20.71C47,55.1,47.23,55.4,47.21,55.51Z"/><path class="cls-1" d="M60.65,33A30,30,0,0,1,57.1,44.75a31.94,31.94,0,0,1-6.38,8.11.4.4,0,0,1-.21.12c-.08,0-.19-.14-.26-.23l-4.7-6.06-11-14.17-.19-.27h.07c.19,0,.34,0,.47,0H60c.26,0,.56,0,.63.08S60.68,32.59,60.65,33Z"/></g></g></svg>