<svg xmlns="http://www.w3.org/2000/svg" viewBox="0 0 21.9 33.01"><defs><style>.cls-1{fill:#fff;}</style></defs><title>Asset 5</title><g id="Layer_2" data-name="Layer 2"><g id="Layer_1-2" data-name="Layer 1"><path class="cls-1" d="M21.9,16.53v15a2.81,2.81,0,0,1-.08.71A1,1,0,0,1,20.7,33H1.25A1.13,1.13,0,0,1,0,31.86c0-.14,0-.27,0-.41Q0,19.52,0,7.59A2,2,0,0,1,.63,6C2.48,4.21,4.3,2.35,6.12.49A1.53,1.53,0,0,1,7.28,0h13.2A1.3,1.3,0,0,1,21.9,1.44Zm-3,3.14V9.43c0-.66-.15-.81-.81-.81H3.83c-.66,0-.82.15-.82.81V29.87c0,.66.15.81.81.81H18.08c.68,0,.82-.14.82-.84Z"/><path class="cls-1" d="M10.94,23.31c-.62,0-1.24,0-1.85,0a.51.51,0,0,1-.37-.21C8.09,22,7.48,21,6.86,19.89a.41.41,0,0,1,0-.47c.63-1.06,1.24-2.14,1.87-3.2A.53.53,0,0,1,9.08,16h3.75a.53.53,0,0,1,.36.22c.64,1.07,1.26,2.15,1.87,3.24a.45.45,0,0,1,0,.39q-.93,1.65-1.89,3.27a.49.49,0,0,1-.34.19C12.2,23.32,11.57,23.31,10.94,23.31Z"/><path class="cls-1" d="M4.14,9.72H7.77c.07,0,.2.15.2.23q0,2.59,0,5.19a.46.46,0,0,1,0,.23L6.1,18.54c-.1-.15-.17-.26-.23-.37l-1.61-2.8A.81.81,0,0,1,4.12,15c0-1.68,0-3.35,0-5A1.22,1.22,0,0,1,4.14,9.72Z"/><path class="cls-1" d="M17.78,9.74c0,.13,0,.24,0,.36v4.74a.86.86,0,0,1-.09.42c-.59,1-1.2,2.09-1.8,3.13a1.37,1.37,0,0,1-.1.14c-.42-.73-.79-1.45-1.24-2.12A3.82,3.82,0,0,1,13.92,14c.06-1.3,0-2.61,0-3.91,0-.29.08-.37.37-.36h3.16Z"/><path class="cls-1" d="M8,29.56H4.11v-.39c0-1.56,0-3.11,0-4.67a1.28,1.28,0,0,1,.15-.58C4.8,23,5.35,22,5.89,21.09l.21-.32c.5.87,1,1.72,1.48,2.54A2.64,2.64,0,0,1,8,24.83c0,1.44,0,2.89,0,4.33Z"/><path class="cls-1" d="M15.82,20.75l.65,1.14c.4.69.81,1.38,1.2,2.08a.74.74,0,0,1,.12.38c0,1.68,0,3.36,0,5a1.15,1.15,0,0,1,0,.16H14c0-.1,0-.2,0-.3,0-1.65,0-3.31,0-5A.61.61,0,0,1,14,24C14.58,22.9,15.19,21.85,15.82,20.75Z"/><path class="cls-1" d="M12.81,14.87H9.1V9.74h3.71Z"/><path class="cls-1" d="M9.1,24.43h3.71v5.12H9.1Z"/><path class="cls-1" d="M4.14,21.93V17.37c.45.78.85,1.47,1.24,2.17a.26.26,0,0,1,0,.21Z"/><path class="cls-1" d="M17.71,21.83c-.39-.68-.79-1.36-1.17-2a.32.32,0,0,1,0-.27l1.23-2.13v4.44Z"/></g></g></svg>