<svg xmlns="http://www.w3.org/2000/svg" viewBox="0 0 53.73 53.74"><defs><style>.cls-1{fill:#2e799a;}</style></defs><title>Asset 10</title><g id="Layer_2" data-name="Layer 2"><g id="Layer_1-2" data-name="Layer 1"><path class="cls-1" d="M9,5.37C9,4.69,9,4.09,9,3.5a3.58,3.58,0,0,1,7.15,0c0,.59,0,1.19,0,1.83h7.16V3.74a3.59,3.59,0,1,1,7.17,0V5.34h7.16c0-.61,0-1.23,0-1.86A3.57,3.57,0,0,1,42.67.33a3.46,3.46,0,0,1,2.1,3.12c0,.61,0,1.23,0,1.92h.68a39.66,39.66,0,0,1,4.63.12,4.26,4.26,0,0,1,3.64,4.26c0,7.74,0,15.48,0,23.23,0,.65-.37,1-.91,1s-.88-.41-.88-1.08v-15H1.79v27.4a2.73,2.73,0,0,0,3,3H29.08a3.47,3.47,0,0,1,.56,0,.86.86,0,0,1,.8.86.89.89,0,0,1-.81.91,3.38,3.38,0,0,1-.45,0H4.72A4.48,4.48,0,0,1,0,45.46V10.08a4.47,4.47,0,0,1,4.71-4.7Zm7.16,1.81V8.79A3.58,3.58,0,1,1,9,8.8c0-.54,0-1.07,0-1.63H4.63A2.69,2.69,0,0,0,1.79,10v5.6c0,.16,0,.32,0,.47H51.94c0-2.14,0-4.23,0-6.32a2.56,2.56,0,0,0-2.3-2.55c-1.6-.1-3.2,0-4.85,0,0,.58,0,1.14,0,1.69a3.58,3.58,0,1,1-7.16,0V7.21H30.45c0,.63,0,1.23,0,1.82a3.44,3.44,0,0,1-1.21,2.61,3.42,3.42,0,0,1-3.81.58A3.43,3.43,0,0,1,23.29,9c0-.6,0-1.21,0-1.82Zm-5.37-1c0,.88,0,1.76,0,2.63a1.79,1.79,0,1,0,3.58,0c0-1.73,0-3.47,0-5.2a1.79,1.79,0,1,0-3.58,0C10.74,4.54,10.75,5.37,10.75,6.21Zm14.33,0c0,.88,0,1.75,0,2.63a1.79,1.79,0,1,0,3.57,0c0-1.73,0-3.47,0-5.2a1.79,1.79,0,1,0-3.57,0C25.07,4.51,25.08,5.36,25.08,6.22Zm14.32,0V8.92a1.79,1.79,0,1,0,3.58,0c0-1.76,0-3.51,0-5.26a1.79,1.79,0,1,0-3.57,0C39.4,4.52,39.4,5.38,39.4,6.23Z"/><path class="cls-1" d="M42.14,53.74A11.65,11.65,0,1,1,53.73,42.05,11.65,11.65,0,0,1,42.14,53.74Zm9.8-11.63A9.85,9.85,0,1,0,42.12,52,9.85,9.85,0,0,0,51.94,42.11Z"/><path class="cls-1" d="M10.73,28.66c-.58,0-1.16,0-1.74,0a1.78,1.78,0,0,1-1.82-1.8c0-.89,0-1.79,0-2.68A1.75,1.75,0,0,1,8.94,22.4c1.2,0,2.39,0,3.59,0a1.78,1.78,0,0,1,1.8,1.81c0,.88,0,1.76,0,2.63a1.78,1.78,0,0,1-1.8,1.82C11.92,28.67,11.33,28.66,10.73,28.66Zm1.77-1.82V24.23H9v2.61Z"/><path class="cls-1" d="M21.55,22.39c.58,0,1.15,0,1.73,0a1.77,1.77,0,0,1,1.79,1.77c0,.91,0,1.83,0,2.74a1.76,1.76,0,0,1-1.76,1.74c-1.21,0-2.42,0-3.64,0a1.74,1.74,0,0,1-1.75-1.74c0-.93,0-1.87,0-2.8a1.75,1.75,0,0,1,1.73-1.71C20.28,22.38,20.91,22.39,21.55,22.39Zm-1.81,1.82v2.63h3.51V24.21Z"/><path class="cls-1" d="M32.29,22.39c.58,0,1.16,0,1.73,0a1.78,1.78,0,0,1,1.8,1.77c0,.91,0,1.82,0,2.74a1.74,1.74,0,0,1-1.75,1.74c-1.21,0-2.42,0-3.64,0a1.78,1.78,0,0,1-1.76-1.8c0-.9,0-1.79,0-2.69a1.76,1.76,0,0,1,1.78-1.77C31.06,22.38,31.67,22.39,32.29,22.39ZM34,26.85V24.22H30.49v2.63Z"/><path class="cls-1" d="M43,28.66c-.58,0-1.16,0-1.74,0a1.78,1.78,0,0,1-1.82-1.8c0-.89,0-1.79,0-2.68a1.75,1.75,0,0,1,1.77-1.78c1.2,0,2.39,0,3.58,0a1.77,1.77,0,0,1,1.8,1.82c0,.87,0,1.75,0,2.63a1.78,1.78,0,0,1-1.8,1.81C44.16,28.67,43.56,28.66,43,28.66Zm-1.76-1.83h3.54V24.22H41.21Z"/><path class="cls-1" d="M10.8,30.45c.58,0,1.16,0,1.73,0a1.77,1.77,0,0,1,1.79,1.77c0,.91,0,1.83,0,2.74a1.76,1.76,0,0,1-1.75,1.75c-1.22,0-2.43,0-3.64,0A1.77,1.77,0,0,1,7.17,35c0-.91,0-1.83,0-2.74A1.76,1.76,0,0,1,9,30.46C9.57,30.44,10.19,30.45,10.8,30.45Zm1.71,4.45V32.28H9V34.9Z"/><path class="cls-1" d="M21.48,30.45c.6,0,1.19,0,1.79,0a1.78,1.78,0,0,1,1.8,1.81c0,.88,0,1.76,0,2.63a1.78,1.78,0,0,1-1.8,1.82c-1.2,0-2.39,0-3.58,0a1.76,1.76,0,0,1-1.77-1.79c0-.9,0-1.79,0-2.69a1.76,1.76,0,0,1,1.77-1.78C20.28,30.44,20.88,30.45,21.48,30.45Zm1.77,4.46V32.28H19.74v2.63Z"/><path class="cls-1" d="M10.74,44.78c-.6,0-1.2,0-1.79,0A1.78,1.78,0,0,1,7.17,43c0-.89,0-1.79,0-2.68A1.76,1.76,0,0,1,9,38.52c1.18,0,2.35,0,3.53,0a1.76,1.76,0,0,1,1.8,1.81c0,.87,0,1.75,0,2.63a1.79,1.79,0,0,1-1.86,1.82ZM9,43H12.5V40.35H9Z"/><path class="cls-1" d="M21.51,44.78H19.72A1.79,1.79,0,0,1,17.91,43c0-.87,0-1.75,0-2.63a1.76,1.76,0,0,1,1.8-1.81c1.2,0,2.39,0,3.58,0a1.77,1.77,0,0,1,1.78,1.78c0,.9,0,1.79,0,2.69a1.78,1.78,0,0,1-1.83,1.79Zm-1.77-4.46V43h3.5V40.32Z"/><path class="cls-1" d="M30.47,32.24v2.64l.3.12a.84.84,0,0,1,.53,1,.87.87,0,0,1-1,.67,1.78,1.78,0,0,1-1.66-1.67c0-1,0-1.94,0-2.91a1.72,1.72,0,0,1,1.64-1.67c1.23,0,2.47,0,3.7,0a.89.89,0,1,1,0,1.78Z"/><path class="cls-1" d="M40.32,45.34c.63-.65,1.21-1.26,1.8-1.85,1.64-1.65,3.28-3.31,5-4.94a1.55,1.55,0,0,1,.91-.43.85.85,0,0,1,.69,1.27,2.22,2.22,0,0,1-.39.47L41.2,46.94c-.71.71-1.08.72-1.78,0L36,43.52a.9.9,0,1,1,1.26-1.27C38.24,43.24,39.24,44.25,40.32,45.34Z"/></g></g></svg>