<svg xmlns="http://www.w3.org/2000/svg" viewBox="0 0 47.42 47.42"><defs><style>.cls-1{fill:#2e799a;}</style></defs><title>Asset 18</title><g id="Layer_2" data-name="Layer 2"><g id="Layer_1-2" data-name="Layer 1"><path class="cls-1" d="M12.22,0a24.4,24.4,0,0,1,2.42.59,11.06,11.06,0,0,1,7.49,10.17c0,.12,0,.24,0,.39a12.63,12.63,0,0,1,14.12,14,29.57,29.57,0,0,1,3.06.53,11,11,0,0,1,8,9.32,1,1,0,0,0,.08.25v2c0,.12-.07.23-.09.35A10.89,10.89,0,0,1,40,46.77a20.44,20.44,0,0,1-2.59.65H35.28l-1.16-.23a11.09,11.09,0,0,1-8.83-10.6c0-.1,0-.19,0-.33A12.63,12.63,0,0,1,11.15,22.2c-.81-.11-1.63-.17-2.42-.34A11,11,0,0,1,.09,12.39c0-.12-.06-.23-.09-.35V10c0-.1.07-.2.09-.3A10.79,10.79,0,0,1,6.85.85,22.7,22.7,0,0,1,9.91,0ZM23.71,12.65A11.06,11.06,0,1,0,34.77,23.72,11.05,11.05,0,0,0,23.71,12.65Zm-9.1.32c.37.21.72.36,1,.58a.44.44,0,0,0,.61,0,11.53,11.53,0,0,1,3.87-1.93c.35-.1.44-.25.44-.6A9.46,9.46,0,0,0,10,1.66,9,9,0,0,0,2.32,7.47,9.11,9.11,0,0,0,3.66,17l.34.38A5.71,5.71,0,0,1,7.55,13a5.58,5.58,0,0,1-2-4.2A5.34,5.34,0,0,1,7.4,4.56,5.52,5.52,0,0,1,15,4.82,5.6,5.6,0,0,1,14.61,13ZM35.43,28.5c2.69-.25,4.79.72,5.92,3.19s.47,4.71-1.47,6.59a5.69,5.69,0,0,1,3.54,4.35,3.31,3.31,0,0,0,.23-.26,9.25,9.25,0,0,0,1.47-9.61,9.4,9.4,0,0,0-8.8-5.89c-.14,0-.38.1-.42.21C35.71,27.53,35.59,28,35.43,28.5ZM40.3,45l1.45-.88a.43.43,0,0,0,.12-.28,3.94,3.94,0,0,0-3.69-4.31c-1.2,0-2.41,0-3.61,0a3.94,3.94,0,0,0-3.74,4.31c0,.07,0,.18.05.21.48.31,1,.6,1.53.95V43.47a.73.73,0,0,1,.52-.74.79.79,0,0,1,1,.81c0,.66,0,1.32,0,2a9,9,0,0,0,4.74,0c0-.67,0-1.32,0-2a.78.78,0,0,1,.82-.86c.46,0,.75.33.76.87ZM15,8.69a3.95,3.95,0,1,0-3.93,4A4,4,0,0,0,15,8.69ZM40.29,34.33a4,4,0,0,0-3.49-4.27,2.87,2.87,0,0,0-2.37.53,18.56,18.56,0,0,0-1.9,2.4.07.07,0,0,0,0,0,3.8,3.8,0,0,0,1.35,4,3.74,3.74,0,0,0,4.17.49A3.69,3.69,0,0,0,40.29,34.33ZM8.7,20.3l2.75.31a13,13,0,0,1,3.26-5.77,3.2,3.2,0,0,0-1.82-.59c-1.22,0-2.44-.05-3.65,0a3.94,3.94,0,0,0-3.7,4.31c0,.08,0,.21.09.24l1.49.92V18.33c0-.61.29-.93.79-.93s.78.34.79.94ZM30.82,34.16a13.85,13.85,0,0,1-3.73,1.73c-.11,0-.22.28-.21.42a9.3,9.3,0,0,0,2.19,6.09,1.68,1.68,0,0,0,.24.19,5.7,5.7,0,0,1,3.54-4.33A5.71,5.71,0,0,1,30.82,34.16Z"/><path class="cls-1" d="M20.09,42.48c-.27-.25-.55-.49-.81-.75a.79.79,0,0,1-.06-1.19.77.77,0,0,1,1.15.06c.76.75,1.52,1.5,2.26,2.26a.8.8,0,0,1,0,1.23c-.74.76-1.5,1.51-2.26,2.25a.79.79,0,1,1-1.1-1.11c.3-.31.64-.58,1-.87l-.08-.13c-.4,0-.81-.07-1.22-.13q-12.86-2-17.17-14.24a18.5,18.5,0,0,1-.95-6c0-.6.27-.95.75-1s.82.32.83.95a17.34,17.34,0,0,0,1,5.72A18.7,18.7,0,0,0,17.89,42.33c.7.15,1.42.22,2.13.32Z"/><path class="cls-1" d="M27.32,4.94c.28.26.58.5.85.78a.78.78,0,0,1,0,1.15.76.76,0,0,1-1.15,0c-.76-.75-1.52-1.5-2.26-2.26a.79.79,0,0,1,0-1.23c.74-.76,1.5-1.51,2.26-2.25A.8.8,0,0,1,28.21,1a.78.78,0,0,1-.07,1.18c-.3.3-.64.56-1,.84l.11.12c.83.11,1.68.18,2.5.36A20.27,20.27,0,0,1,45.54,17.17a18.79,18.79,0,0,1,1.08,6.35c0,.71-.45,1.12-1,.93s-.52-.54-.56-1a40.66,40.66,0,0,0-.51-4.12A18.93,18.93,0,0,0,29.67,5.1c-.75-.14-1.51-.23-2.27-.33Z"/><path class="cls-1" d="M21.31,25.79l5.4-5.41.36-.36a.79.79,0,0,1,1.12,0,.77.77,0,0,1,0,1.15Q25,24.28,21.92,27.39a.76.76,0,0,1-1.18,0l-1.48-1.47a.8.8,0,0,1-.06-1.16.81.81,0,0,1,1.19.06C20.7,25.11,21,25.44,21.31,25.79Z"/></g></g></svg>