<svg xmlns="http://www.w3.org/2000/svg" xmlns:xlink="http://www.w3.org/1999/xlink" viewBox="0 0 322.18 127.31"><defs><style>.cls-1{fill:url(#linear-gradient);}.cls-2{fill:url(#linear-gradient-2);}.cls-3{fill:url(#linear-gradient-3);}.cls-4{fill:url(#linear-gradient-4);}.cls-5{fill:url(#linear-gradient-5);}.cls-6{fill:url(#linear-gradient-6);}.cls-7{fill:url(#linear-gradient-7);}.cls-8{fill:url(#linear-gradient-8);}.cls-9{fill:url(#linear-gradient-9);}.cls-10{fill:url(#linear-gradient-10);}.cls-11{fill:url(#linear-gradient-11);}.cls-12{fill:url(#linear-gradient-12);}.cls-13{fill:url(#linear-gradient-13);}.cls-14{fill:url(#linear-gradient-14);}.cls-15{fill:url(#linear-gradient-15);}.cls-16{fill:url(#linear-gradient-16);}.cls-17{fill:url(#linear-gradient-17);}.cls-18{fill:url(#linear-gradient-18);}.cls-19{fill:url(#linear-gradient-19);}.cls-20{fill:url(#linear-gradient-20);}.cls-21{fill:url(#linear-gradient-21);}.cls-22{fill:url(#linear-gradient-22);}.cls-23{fill:url(#linear-gradient-23);}.cls-24{fill:url(#linear-gradient-24);}.cls-25{fill:url(#linear-gradient-25);}.cls-26{fill:url(#linear-gradient-26);}.cls-27{fill:url(#linear-gradient-27);}.cls-28{fill:url(#linear-gradient-28);}.cls-29{fill:url(#linear-gradient-29);}.cls-30{fill:url(#linear-gradient-30);}.cls-31{fill:url(#linear-gradient-31);}.cls-32{fill:url(#linear-gradient-32);}.cls-33{fill:url(#linear-gradient-33);}.cls-34{fill:url(#linear-gradient-34);}.cls-35{fill:url(#linear-gradient-35);}</style><linearGradient id="linear-gradient" x1="2.61" y1="97.86" x2="318.21" y2="-27.41" gradientUnits="userSpaceOnUse"><stop offset="0" stop-color="#1a3460"/><stop offset="0.11" stop-color="#173f6d"/><stop offset="0.51" stop-color="#0d6699"/><stop offset="0.82" stop-color="#067eb4"/><stop offset="1" stop-color="#0487be"/></linearGradient><linearGradient id="linear-gradient-2" x1="11.62" y1="120.56" x2="327.22" y2="-4.72" xlink:href="#linear-gradient"/><linearGradient id="linear-gradient-3" x1="18.69" y1="138.36" x2="334.29" y2="13.09" xlink:href="#linear-gradient"/><linearGradient id="linear-gradient-4" x1="23.36" y1="150.14" x2="338.97" y2="24.87" xlink:href="#linear-gradient"/><linearGradient id="linear-gradient-5" x1="8.33" y1="112.25" x2="323.93" y2="-13.02" xlink:href="#linear-gradient"/><linearGradient id="linear-gradient-6" x1="-6.84" y1="74.06" x2="308.77" y2="-51.21" xlink:href="#linear-gradient"/><linearGradient id="linear-gradient-7" x1="-0.64" y1="89.68" x2="314.97" y2="-35.6" xlink:href="#linear-gradient"/><linearGradient id="linear-gradient-8" x1="4.22" y1="101.91" x2="319.82" y2="-23.36" xlink:href="#linear-gradient"/><linearGradient id="linear-gradient-9" x1="10.67" y1="118.16" x2="326.27" y2="-7.11" xlink:href="#linear-gradient"/><linearGradient id="linear-gradient-10" x1="15.89" y1="131.31" x2="331.49" y2="6.03" xlink:href="#linear-gradient"/><linearGradient id="linear-gradient-11" x1="24.27" y1="152.43" x2="339.88" y2="27.16" xlink:href="#linear-gradient"/><linearGradient id="linear-gradient-12" x1="0.67" y1="92.96" x2="316.27" y2="-32.31" xlink:href="#linear-gradient"/><linearGradient id="linear-gradient-13" x1="6.06" y1="106.55" x2="321.66" y2="-18.72" xlink:href="#linear-gradient"/><linearGradient id="linear-gradient-14" x1="17.33" y1="134.94" x2="332.93" y2="9.66" xlink:href="#linear-gradient"/><linearGradient id="linear-gradient-15" x1="23.31" y1="150.01" x2="338.91" y2="24.73" xlink:href="#linear-gradient"/><linearGradient id="linear-gradient-16" x1="28.51" y1="163.1" x2="344.11" y2="37.83" xlink:href="#linear-gradient"/><linearGradient id="linear-gradient-17" x1="32.71" y1="173.69" x2="348.32" y2="48.42" xlink:href="#linear-gradient"/><linearGradient id="linear-gradient-18" x1="10.89" y1="118.72" x2="326.5" y2="-6.55" xlink:href="#linear-gradient"/><linearGradient id="linear-gradient-19" x1="13.22" y1="124.58" x2="328.82" y2="-0.69" xlink:href="#linear-gradient"/><linearGradient id="linear-gradient-20" x1="14.06" y1="126.71" x2="329.67" y2="1.44" xlink:href="#linear-gradient"/><linearGradient id="linear-gradient-21" x1="14.75" y1="128.44" x2="330.35" y2="3.17" xlink:href="#linear-gradient"/><linearGradient id="linear-gradient-22" x1="17.22" y1="134.67" x2="332.83" y2="9.4" xlink:href="#linear-gradient"/><linearGradient id="linear-gradient-23" x1="18.85" y1="138.77" x2="334.45" y2="13.5" xlink:href="#linear-gradient"/><linearGradient id="linear-gradient-24" x1="26.22" y1="157.33" x2="341.82" y2="32.06" xlink:href="#linear-gradient"/><linearGradient id="linear-gradient-25" x1="25.39" y1="155.25" x2="340.99" y2="29.97" xlink:href="#linear-gradient"/><linearGradient id="linear-gradient-26" x1="24.7" y1="153.51" x2="340.31" y2="28.24" xlink:href="#linear-gradient"/><linearGradient id="linear-gradient-27" x1="25.41" y1="155.3" x2="341.02" y2="30.03" xlink:href="#linear-gradient"/><linearGradient id="linear-gradient-28" x1="29.57" y1="165.77" x2="345.17" y2="40.49" xlink:href="#linear-gradient"/><linearGradient id="linear-gradient-29" x1="28.88" y1="164.04" x2="344.48" y2="38.77" xlink:href="#linear-gradient"/><linearGradient id="linear-gradient-30" x1="30.66" y1="168.53" x2="346.27" y2="43.26" xlink:href="#linear-gradient"/><linearGradient id="linear-gradient-31" x1="30.72" y1="168.67" x2="346.32" y2="43.4" xlink:href="#linear-gradient"/><linearGradient id="linear-gradient-32" x1="33.25" y1="175.05" x2="348.85" y2="49.77" xlink:href="#linear-gradient"/><linearGradient id="linear-gradient-33" x1="36.15" y1="182.35" x2="351.75" y2="57.08" xlink:href="#linear-gradient"/><linearGradient id="linear-gradient-34" x1="37.11" y1="184.78" x2="352.72" y2="59.51" xlink:href="#linear-gradient"/><linearGradient id="linear-gradient-35" x1="35.26" y1="180.11" x2="350.86" y2="54.83" xlink:href="#linear-gradient"/></defs><title>Asset 1</title><g id="Layer_2" data-name="Layer 2"><g id="Layer_1-2" data-name="Layer 1"><path class="cls-1" d="M180.41,11.79s33.76-23.2,91.94-4.51c0,0-27-3.64-60.51,18.3C211.84,25.58,207.25,10.71,180.41,11.79Z"/><path class="cls-2" d="M214,26.88S247.77,2.7,275.19,8.22c0,0-17.78,12.88-24.46,34.25C250.73,42.47,238.55,26.59,214,26.88Z"/><path class="cls-3" d="M275.19,8.22c-15.36,14.18-21.45,35.83-21.45,35.83s23.83,1.41,34.34,15.7C288.08,59.75,289,25.58,275.19,8.22Z"/><path class="cls-4" d="M322.18,73.5s-8.05-13.32-33-12.88c0,0,5.43-32.23-14-52.4C275.19,8.22,312.83,25.22,322.18,73.5Z"/><path class="cls-5" d="M280.87.33a1.6,1.6,0,0,0-2,.45l-3.56,5.16-1.44-.75a.81.81,0,0,0-1,.22.58.58,0,0,0,.25.85l5.42,2.8a.81.81,0,0,0,1-.22.58.58,0,0,0-.25-.85l-1.44-.75,3.56-5.16A1.19,1.19,0,0,0,280.87.33Z"/><path class="cls-6" d="M58.68,53.11c-3.22,4.8-10.45,10.13-10.45,10.13H25.92a8.5,8.5,0,0,0-4.59,1.3,11.24,11.24,0,0,0-5,7.29H0A24.34,24.34,0,0,1,11.93,55.78a21,21,0,0,1,10.38-2.67Z"/><polygon class="cls-7" points="63.41 53.11 80.25 53.11 72.36 71.84 54.96 71.84 63.41 53.11"/><path class="cls-8" d="M75.37,71.84a39.23,39.23,0,0,0,4.38-5.18H93.69l5.68-13.55h16.82L107.8,71.84Z"/><path class="cls-9" d="M121.86,71.84S130.58,62,134.53,58,139.66,53,141.12,53h13.32a4,4,0,0,1,3,1.31,10.85,10.85,0,0,1,2.13,4.15c1.31,4.49,2,13.36,2,13.36H146.8a20.91,20.91,0,0,1-1.19-6.38l-6.33,6.38Z"/><path class="cls-10" d="M182,71.84l3.88-8.62H169.14s5.35-6.07,7.81-8.41S179.74,53,181.87,53H224a60.67,60.67,0,0,1-6,7.11c-3.07,3-3.5,3.09-7,3.09h-8.07l-3.57,8.62Z"/><path class="cls-11" d="M220.23,71.84,228.36,53h40.69s8,.94,8,6.79.25,10-3.26,12.09H239.27S242.43,70,243.33,68h15.12s1.8.07,1.8-2.39-1.3-2.34-1.3-2.34H241s-1.63,5.52-4,8.55Z"/><path class="cls-12" d="M0,79.18H18.47a5.29,5.29,0,0,0,5.26,3.63H46.14a42.42,42.42,0,0,1-10,10.12H21S.69,91.15,0,79.18Z"/><path class="cls-13" d="M46.14,92.93s4.44-7.79,6.19-13.75H69.24S65.42,88,63,92.93Z"/><path class="cls-14" d="M102.79,92.88a54.38,54.38,0,0,0,12.14-13.7h18.34s-5.82,4-2.84,4h18l-.73-4h16l2.44,13.7H150.93l-2-7.56a.27.27,0,0,0-.43-.09l-7.78,7.65Z"/><path class="cls-15" d="M173.09,92.88s4.57-9.74,5.76-13.7h17.71l-6.44,13.7Z"/><polygon class="cls-16" points="211.09 92.88 217.1 79.18 233.62 79.18 228.24 92.88 211.09 92.88"/><polygon class="cls-17" points="235.69 79.18 255.91 79.18 271.43 92.88 252.65 92.88 235.69 79.18"/><path class="cls-18" d="M87.81,79.18h16.77s-4.09,9.3-6,13.75H82.38Z"/><path class="cls-19" d="M67,103.86a2.51,2.51,0,0,0,.71.37,2.75,2.75,0,0,0,.88.13,2.6,2.6,0,0,0,1.58-.5,2,2,0,0,0,.5-.55,1.37,1.37,0,0,0,.18-.69,1.33,1.33,0,0,0-.18-.68,1.87,1.87,0,0,0-.5-.55,2.45,2.45,0,0,0-.72-.37,2.72,2.72,0,0,0-.86-.14,2.75,2.75,0,0,0-.88.14,2.28,2.28,0,0,0-.71.37,1.57,1.57,0,0,0-.48.55,1.33,1.33,0,0,0-.18.68,1.37,1.37,0,0,0,.18.69A1.66,1.66,0,0,0,67,103.86Z"/><path class="cls-20" d="M64.48,107.29a2.45,2.45,0,0,0,.72.37,2.75,2.75,0,0,0,.88.14,2.72,2.72,0,0,0,.86-.14,2.45,2.45,0,0,0,.72-.37,1.87,1.87,0,0,0,.5-.55,1.31,1.31,0,0,0,.18-.66,1.42,1.42,0,0,0-.18-.69,1.87,1.87,0,0,0-.5-.55,2.45,2.45,0,0,0-.72-.37,2.72,2.72,0,0,0-.86-.14,2.75,2.75,0,0,0-.88.14,2.45,2.45,0,0,0-.72.37,1.64,1.64,0,0,0-.47.55,1.42,1.42,0,0,0-.18.69,1.31,1.31,0,0,0,.18.66A1.64,1.64,0,0,0,64.48,107.29Z"/><path class="cls-21" d="M69.52,104.84a1.71,1.71,0,0,0-.49.55,1.53,1.53,0,0,0-.17.69,1.41,1.41,0,0,0,.17.66,1.71,1.71,0,0,0,.49.55,2.45,2.45,0,0,0,.72.37,2.84,2.84,0,0,0,.88.14,2.8,2.8,0,0,0,.88-.14,2.45,2.45,0,0,0,.72-.37,1.71,1.71,0,0,0,.49-.55,1.41,1.41,0,0,0,.17-.66,1.53,1.53,0,0,0-.17-.69,1.71,1.71,0,0,0-.49-.55,2.45,2.45,0,0,0-.72-.37,2.8,2.8,0,0,0-.88-.14,2.84,2.84,0,0,0-.88.14A2.45,2.45,0,0,0,69.52,104.84Z"/><path class="cls-22" d="M87.7,107.29a2.45,2.45,0,0,0,.72.37,2.84,2.84,0,0,0,1.76,0,2.28,2.28,0,0,0,.71-.37,1.83,1.83,0,0,0,.49-.55,1.31,1.31,0,0,0,.18-.66,1.42,1.42,0,0,0-.18-.69,1.83,1.83,0,0,0-.49-.55,2.28,2.28,0,0,0-.71-.37,2.84,2.84,0,0,0-1.76,0,2.45,2.45,0,0,0-.72.37,1.71,1.71,0,0,0-.49.55,1.53,1.53,0,0,0-.17.69,1.41,1.41,0,0,0,.17.66A1.71,1.71,0,0,0,87.7,107.29Z"/><path class="cls-23" d="M112.05,109h-2.12a2.72,2.72,0,0,0-1.65.76,2,2,0,0,0-.56,1.39v4.21H98.38V109h-15v1.21a2.24,2.24,0,0,0,.16,1,1.61,1.61,0,0,0,.48.63,1.87,1.87,0,0,0,.71.34,4,4,0,0,0,.86.12H94v3.07H79.19V109H77.05a3,3,0,0,0-1,.15,2,2,0,0,0-.72.44,1.72,1.72,0,0,0-.43.68,2.08,2.08,0,0,0-.09.88v4.21H70.58V109H68.46a2.6,2.6,0,0,0-1.72.66,1.64,1.64,0,0,0-.49,1.46v4.24H62V109H59.85a2.73,2.73,0,0,0-1,.17,2.05,2.05,0,0,0-.73.45,1.52,1.52,0,0,0-.4.67,1.77,1.77,0,0,0,0,.83v4.24h-20v3.36h70.88a4.43,4.43,0,0,0,1.38-.21,3.22,3.22,0,0,0,1.11-.65,2.9,2.9,0,0,0,.74-1,3.56,3.56,0,0,0,.27-1.42v-2.08c0-.47,0-1,0-1.74S112.05,110,112.05,109Z"/><path class="cls-24" d="M107.81,124.34a2.45,2.45,0,0,0-.72-.37,3,3,0,0,0-1.74,0,2.33,2.33,0,0,0-.72.37,1.64,1.64,0,0,0-.47.55,1.39,1.39,0,0,0,0,1.37,1.75,1.75,0,0,0,.47.55,2.57,2.57,0,0,0,.72.37,3,3,0,0,0,1.74,0,2.72,2.72,0,0,0,.72-.37,1.82,1.82,0,0,0,.49-.55,1.33,1.33,0,0,0,0-1.37A1.71,1.71,0,0,0,107.81,124.34Z"/><path class="cls-25" d="M110.4,120.91a2.7,2.7,0,0,0-.72-.36,2.84,2.84,0,0,0-1.76,0,2.7,2.7,0,0,0-.72.36,1.68,1.68,0,0,0-.49.54,1.42,1.42,0,0,0-.17.67,1.46,1.46,0,0,0,.17.68,1.74,1.74,0,0,0,.49.56,2.45,2.45,0,0,0,.72.37,3,3,0,0,0,1.76,0,2.45,2.45,0,0,0,.72-.37,1.74,1.74,0,0,0,.49-.56,1.46,1.46,0,0,0,.17-.68,1.42,1.42,0,0,0-.17-.67A1.68,1.68,0,0,0,110.4,120.91Z"/><path class="cls-26" d="M105.34,123.36a1.74,1.74,0,0,0,.49-.56,1.27,1.27,0,0,0,.19-.68,1.24,1.24,0,0,0-.19-.67,1.68,1.68,0,0,0-.49-.54,2.7,2.7,0,0,0-.72-.36,2.77,2.77,0,0,0-1.74,0,2.56,2.56,0,0,0-.72.36,1.61,1.61,0,0,0-.47.54,1.32,1.32,0,0,0-.18.67,1.36,1.36,0,0,0,.18.68,1.68,1.68,0,0,0,.47.56,2.33,2.33,0,0,0,.72.37,3,3,0,0,0,1.74,0A2.45,2.45,0,0,0,105.34,123.36Z"/><path class="cls-27" d="M118.14,110.83v6.25c-.13,1.12.47,1.67,1.79,1.66h7.22a4.3,4.3,0,0,1-.65,1.51,7,7,0,0,1-1.12,1.28,11.44,11.44,0,0,1-1.43,1.09c-.51.34-1,.65-1.55.95h5.13a11.17,11.17,0,0,0,2-1.45,5.92,5.92,0,0,0,1.18-1.54,5.71,5.71,0,0,0,.55-1.74,14.5,14.5,0,0,0,.14-2.06V109h-11A2.06,2.06,0,0,0,118.14,110.83Zm4.36,1.48H127v3.07H122.5Z"/><path class="cls-28" d="M178.39,107.29a2.28,2.28,0,0,0,.71.37,2.72,2.72,0,0,0,.86.14,2.8,2.8,0,0,0,.88-.14,2.45,2.45,0,0,0,.72-.37,1.71,1.71,0,0,0,.49-.55,1.41,1.41,0,0,0,.17-.66,1.53,1.53,0,0,0-.17-.69,1.71,1.71,0,0,0-.49-.55,2.45,2.45,0,0,0-.72-.37,2.8,2.8,0,0,0-.88-.14,2.72,2.72,0,0,0-.86.14,2.28,2.28,0,0,0-.71.37,1.71,1.71,0,0,0-.49.55,1.42,1.42,0,0,0-.18.69,1.31,1.31,0,0,0,.18.66A1.71,1.71,0,0,0,178.39,107.29Z"/><path class="cls-29" d="M173.34,107.29a2.23,2.23,0,0,0,.72.37,2.8,2.8,0,0,0,1.75,0,2.45,2.45,0,0,0,.72-.37,1.64,1.64,0,0,0,.47-.55,1.31,1.31,0,0,0,.18-.66,1.42,1.42,0,0,0-.18-.69,1.64,1.64,0,0,0-.47-.55,2.45,2.45,0,0,0-.72-.37,2.8,2.8,0,0,0-1.75,0,2.23,2.23,0,0,0-.72.37,1.8,1.8,0,0,0-.48.55,1.53,1.53,0,0,0-.17.69,1.41,1.41,0,0,0,.17.66A1.8,1.8,0,0,0,173.34,107.29Z"/><path class="cls-30" d="M190.68,109h-2.13a3.07,3.07,0,0,0-1,.22,2.19,2.19,0,0,0-.72.47,1.53,1.53,0,0,0-.41.66,1.78,1.78,0,0,0-.07.8v4.21h-6.68V109h-2.12a3.22,3.22,0,0,0-1.8.8,1.54,1.54,0,0,0-.41,1.32v4.24H158.78V109h-9.43a2.53,2.53,0,0,0-1.59.43,1.9,1.9,0,0,0-.63,1.38v4.55h-9.45v1.7c-.09,1.12.52,1.67,1.83,1.66H148a4.45,4.45,0,0,0,1.39-.21,3.36,3.36,0,0,0,1.12-.65,3.11,3.11,0,0,0,.74-1.06,3.63,3.63,0,0,0,.27-1.44v-.55c0-.2,0-.49,0-.88s0-.93,0-1.63h3l0,3a3.33,3.33,0,0,0,.93,2.62,3.45,3.45,0,0,0,2.48.78h29.34a4.45,4.45,0,0,0,1.39-.21,3.36,3.36,0,0,0,1.12-.65,3,3,0,0,0,.73-1,3.56,3.56,0,0,0,.27-1.42V115a.57.57,0,0,0,0-.13Z"/><path class="cls-31" d="M190,104.84a2.28,2.28,0,0,0-.71-.37,2.84,2.84,0,0,0-1.76,0,2.45,2.45,0,0,0-.72.37,1.71,1.71,0,0,0-.49.55,1.53,1.53,0,0,0-.17.69,1.41,1.41,0,0,0,.17.66,1.71,1.71,0,0,0,.49.55,2.45,2.45,0,0,0,.72.37,2.84,2.84,0,0,0,1.76,0,2.28,2.28,0,0,0,.71-.37,1.8,1.8,0,0,0,.48-.55,1.3,1.3,0,0,0,.17-.66,1.41,1.41,0,0,0-.17-.69A1.8,1.8,0,0,0,190,104.84Z"/><path class="cls-32" d="M197.46,117V102.72h-2.14a2.43,2.43,0,0,0-1.51.5,2.28,2.28,0,0,0-.7,1.3v14.22h2.14A2,2,0,0,0,197.46,117Z"/><path class="cls-33" d="M201.11,111.93v7.33a3.4,3.4,0,0,1-.57,1.24,6.58,6.58,0,0,1-1,1.11,10.84,10.84,0,0,1-1.33,1c-.49.32-1,.63-1.51.94h5.16a11.28,11.28,0,0,0,2-1.45,6.1,6.1,0,0,0,1.17-1.54,5.72,5.72,0,0,0,.56-1.74,14.5,14.5,0,0,0,.14-2.06V109h-2.2A2.62,2.62,0,0,0,201.11,111.93Z"/><path class="cls-34" d="M238.47,109.61a3.07,3.07,0,0,0-1.14-.46,6,6,0,0,0-1.43-.13h-4.4a7,7,0,0,1-1.35,0,3,3,0,0,1-.89-.27,1.2,1.2,0,0,1-.48-.43,1.1,1.1,0,0,1-.15-.57,1.75,1.75,0,0,1,.18-.49c.12-.25.27-.55.45-.88s.38-.7.6-1.08l.63-1.1.52-.9.3-.53h-4.77l-1,1.53c-.36.56-.7,1.13-1,1.72a13.73,13.73,0,0,0-.79,1.77,4.78,4.78,0,0,0-.32,1.67,2.26,2.26,0,0,0,.22,1,2.49,2.49,0,0,0,.72.86,4.43,4.43,0,0,0,1.25.67,7.76,7.76,0,0,0,1.84.4H235v3.07H212.7V102.72h-2.14a2.07,2.07,0,0,0-2.21,1.8c0,1.22,0,2.41,0,3.59s0,2.34,0,3.51,0,2.33,0,3.51,0,2.38,0,3.61h27.46a8.26,8.26,0,0,0,1.46-.11,3,3,0,0,0,1.12-.4,2,2,0,0,0,.71-.77,2.61,2.61,0,0,0,.22-1.22v-4.56a2.32,2.32,0,0,0-.17-1.24A2,2,0,0,0,238.47,109.61Z"/><path class="cls-35" d="M222.07,108.55s0,0,0,0l3.63-5.94H223.9c-.14.23-.32.5-.52.81s-.42.64-.63,1a11.13,11.13,0,0,0-.57,1.08,6,6,0,0,0-.4,1.11,3.48,3.48,0,0,0-.08,1.05A1.63,1.63,0,0,0,222.07,108.55Z"/></g></g></svg>