<svg xmlns="http://www.w3.org/2000/svg" viewBox="0 0 49.08 49.09"><title>Asset 15</title><g id="Layer_2" data-name="Layer 2"><g id="Layer_1-2" data-name="Layer 1"><path d="M23.11,49.09c-.95-.13-1.91-.21-2.84-.39A24.17,24.17,0,0,1,2.88,36.05,22.77,22.77,0,0,1,.05,23.51C.62,14.3,5,7.4,13,2.89A22.42,22.42,0,0,1,25.57.05C34.78.61,41.67,5,46.19,13A22.73,22.73,0,0,1,49,22.7a3,3,0,0,0,.08.41V26a2.7,2.7,0,0,0-.08.41,23.15,23.15,0,0,1-2.8,9.66A24.2,24.2,0,0,1,28.82,48.7c-.94.18-1.89.26-2.84.39ZM24.56,2.23a22.32,22.32,0,1,0,22.3,22.34A22.35,22.35,0,0,0,24.56,2.23Z"/><path d="M19,23.14a1.87,1.87,0,0,1,1.59-1.87,12.53,12.53,0,0,1,4.06-.76A3.33,3.33,0,0,1,27.93,23a7,7,0,0,1-.12,2.65c-.49,2.07-1.12,4.12-1.67,6.18A7,7,0,0,0,26,33.18a1.13,1.13,0,0,0,1.08,1.32,11.17,11.17,0,0,0,2.08-.08,3.6,3.6,0,0,0,.72-.21c-.12.48-.22.89-.35,1.29,0,.08-.15.15-.25.19a26.77,26.77,0,0,1-3,1A5.2,5.2,0,0,1,22,36.06a2.93,2.93,0,0,1-1.29-2.72,21.62,21.62,0,0,1,1.05-4.65c.33-1.22.64-2.44.95-3.66a3.07,3.07,0,0,0,.06-.52c.05-1.33-.54-1.89-1.88-1.73C20.23,22.85,19.64,23,19,23.14Z"/><path d="M27,12.28a3,3,0,0,1,3.16,2.94,2.89,2.89,0,0,1-2.24,2.65,3.28,3.28,0,0,1-3.74-1.51,2.85,2.85,0,0,1,2.49-4.06Z"/></g></g></svg>