<svg xmlns="http://www.w3.org/2000/svg" viewBox="0 0 29.45 26.21"><defs><style>.cls-1{fill:#eb2427;}.cls-2{fill:#fff;}</style></defs><title>Asset 6</title><g id="Layer_2" data-name="Layer 2"><g id="Layer_1-2" data-name="Layer 1"><path class="cls-1" d="M14.71,26.21H2.5A2.42,2.42,0,0,1,.08,24.36a2.67,2.67,0,0,1,.34-2.05Q3.12,17.67,5.78,13L12.5,1.4A2.42,2.42,0,0,1,16,.38,3.26,3.26,0,0,1,17,1.5Q22.54,11,28,20.57c.35.6.7,1.2,1,1.81a2.48,2.48,0,0,1-2.23,3.83Zm1.66-13.57h0c0-1.17,0-2.35,0-3.53a1.3,1.3,0,0,0-1-1.29,1.72,1.72,0,0,0-1.85.44,1.78,1.78,0,0,0-.37,1.23v6.25a3.55,3.55,0,0,0,.05.57,1.37,1.37,0,0,0,1,1.12,1.6,1.6,0,0,0,2.19-1.66C16.37,14.73,16.37,13.68,16.37,12.64ZM14.71,22.89a1.61,1.61,0,0,0,1.64-1.6,1.62,1.62,0,1,0-3.24,0A1.6,1.6,0,0,0,14.71,22.89Z"/><path class="cls-2" d="M16.37,12.64c0,1,0,2.09,0,3.13a1.6,1.6,0,0,1-2.19,1.66,1.37,1.37,0,0,1-1-1.12,3.55,3.55,0,0,1-.05-.57V9.49a1.78,1.78,0,0,1,.37-1.23,1.72,1.72,0,0,1,1.85-.44,1.3,1.3,0,0,1,1,1.29c0,1.18,0,2.36,0,3.53Z"/><path class="cls-2" d="M14.71,22.89a1.6,1.6,0,0,1-1.6-1.63,1.62,1.62,0,1,1,3.24,0A1.61,1.61,0,0,1,14.71,22.89Z"/></g></g></svg>