<svg xmlns="http://www.w3.org/2000/svg" viewBox="0 0 33.07 39.57"><title>Asset 9</title><g id="Layer_2" data-name="Layer 2"><g id="Layer_1-2" data-name="Layer 1"><path d="M32.25,30.07,32,29.83l-.24-.22a10.55,10.55,0,0,1-3.5-7.24c-.09-1.34-.08-2.72-.08-4.05,0-.52,0-1.05,0-1.57A11.64,11.64,0,0,0,20.23,5.5c-.18-.07-.19-.1-.18-.25,0-.55,0-1.1,0-1.69A3.55,3.55,0,0,0,17.69.19L17.28.07,17,0H16l-.15.07a3.43,3.43,0,0,0-2.78,3.08,12.05,12.05,0,0,0,0,2c0,.25,0,.31-.29.39A11.6,11.6,0,0,0,4.91,16.17c0,1,0,2.06,0,3.09v2.06a11.13,11.13,0,0,1-3.82,8.51,3.67,3.67,0,0,0-.54.57,2.59,2.59,0,0,0-.25,2.77,2.53,2.53,0,0,0,2.39,1.51h8l0,.13A5.91,5.91,0,0,0,15,39.37l.57.15.27,0h1.41l.23-.07a5.92,5.92,0,0,0,4.82-4.44l.09-.37h8A2.58,2.58,0,0,0,32.86,33,2.65,2.65,0,0,0,32.25,30.07ZM20.19,34.7a3.87,3.87,0,0,1-3.7,2.74,3.83,3.83,0,0,1-3.6-2.74ZM16.3,32.58H2.89v.25h0l-.11-.25a.58.58,0,0,1-.61-.37c-.09-.24,0-.43.22-.69l.4-.39a19.19,19.19,0,0,0,1.38-1.47A12.92,12.92,0,0,0,7,21.87c0-1.09,0-2.17,0-3.26q0-1.14,0-2.28a9.53,9.53,0,0,1,7.05-9A10,10,0,0,1,16.55,7,9.48,9.48,0,0,1,26,15.19,10.63,10.63,0,0,1,26,16.68c0,1.14,0,2.28,0,3.42v1.12a13.18,13.18,0,0,0,4.54,10.24c.41.36.37.57.29.75s-.31.38-.72.38h-.41l-8.32,0H16.55Zm1.61-27.9v.25H15.2c0-.12,0-.25,0-.37a9.35,9.35,0,0,1,0-1.4,1.32,1.32,0,0,1,1.3-1h.1A1.36,1.36,0,0,1,17.9,3.4C17.92,3.83,17.91,4.26,17.91,4.68Z"/></g></g></svg>