<svg xmlns="http://www.w3.org/2000/svg" viewBox="0 0 35.53 24.99"><title>Asset 8</title><g id="Layer_2" data-name="Layer 2"><g id="Layer_1-2" data-name="Layer 1"><path d="M35.53,22.21a8.41,8.41,0,0,1-.62,1.48A3,3,0,0,1,32.43,25H3.33A3.2,3.2,0,0,1,.64,23.73,3.1,3.1,0,0,1,0,21.79Q0,12.49,0,3.2A3.11,3.11,0,0,1,3.29,0H32.22a3.1,3.1,0,0,1,3,1.8,6.22,6.22,0,0,1,.31,1ZM3.61,2.1l.1.13Q9.61,8.09,15.52,14a3.56,3.56,0,0,0,1.19.76,3.06,3.06,0,0,0,3.39-.82L31.73,2.32l.21-.22Zm8.93,11.81-8.8,9h28l-8.74-9c-.41.44-.69.75-1,1a13.66,13.66,0,0,1-1.12,1A5.17,5.17,0,0,1,14,15.43C13.54,15,13.08,14.46,12.54,13.91Zm-1.69-1.36L2.11,3.67V21.46Zm22.59-8.9-.08,0-8.83,9,8.91,8.86Z"/></g></g></svg>