<svg xmlns="http://www.w3.org/2000/svg" viewBox="0 0 25 28.14"><defs><style>.cls-1{fill:#fdf5e1;}</style></defs><title>Asset 3</title><g id="Layer_2" data-name="Layer 2"><g id="Layer_1-2" data-name="Layer 1"><path class="cls-1" d="M24.94,9.56a44.8,44.8,0,0,1,0,4.49c-.65,6.34-3.85,10.87-9.77,13.38a11.75,11.75,0,0,1-1.9.63,4.59,4.59,0,0,1-2.95-.47,16.83,16.83,0,0,1-10-12.74A17.56,17.56,0,0,1,0,12C0,9.83,0,7.7,0,5.58A1,1,0,0,1,1.08,4.42,19.2,19.2,0,0,0,10.69,1c.35-.23.69-.47,1-.71a1.09,1.09,0,0,1,1.56,0,24.36,24.36,0,0,0,5.08,2.84,16.93,16.93,0,0,0,5.48,1.24c.82,0,1.16.4,1.16,1.23V9.56ZM23,6.38l-.21,0c-1.09-.21-2.19-.36-3.25-.66a22.56,22.56,0,0,1-6.77-3.27.37.37,0,0,0-.51,0,22.94,22.94,0,0,1-7.19,3.4c-1,.25-2,.41-3,.62,0,.05,0,.14,0,.23,0,1.81,0,3.62,0,5.43a12.08,12.08,0,0,0,.14,2,15,15,0,0,0,8.31,11.39,4.27,4.27,0,0,0,3.8.17A13.74,13.74,0,0,0,23,13c0-1.48,0-3,0-4.46Z" transform="translate(0 0)"/><path class="cls-1" d="M11.18,16.18a2.44,2.44,0,0,1,.23-.34l5.19-5.2a1.05,1.05,0,0,1,1-.36,1,1,0,0,1,.58,1.6,2.73,2.73,0,0,1-.23.25c-2,2-4,3.95-5.92,5.92a1.06,1.06,0,0,1-1.75,0L6.92,14.68A1,1,0,0,1,7.47,13a1,1,0,0,1,.92.36l2.51,2.51C11,15.91,11,16,11.18,16.18Z" transform="translate(0 0)"/></g></g></svg>