<svg xmlns="http://www.w3.org/2000/svg" viewBox="0 0 38.92 38.91"><defs><style>.cls-1{fill:#2e799a;}</style></defs><title>Asset 17</title><g id="Layer_2" data-name="Layer 2"><g id="Layer_1-2" data-name="Layer 1"><path class="cls-1" d="M0,19.07a3.22,3.22,0,0,1,1.22-2,2.89,2.89,0,0,1,3.18-.26A.42.42,0,0,0,5,16.7q3.3-3.33,6.63-6.63c.2-.21.25-.35.11-.61a3,3,0,0,1,.81-3.75,3,3,0,0,1,3.78.06,3,3,0,0,1,.72,3.71.37.37,0,0,0,.07.54q1.8,1.77,3.55,3.55a.36.36,0,0,0,.51.09,2.88,2.88,0,0,1,2.87,0,.31.31,0,0,0,.46,0c2.92-2.94,5.86-5.88,8.79-8.82h0a10.28,10.28,0,0,1-.39-1.49A3,3,0,0,1,35.28.07L35.49,0h.76a3.19,3.19,0,0,1,2.06,1.24,2.87,2.87,0,0,1,.21,3.21A2.79,2.79,0,0,1,35.67,6a10,10,0,0,1-1.59-.4l-.2.19-8.5,8.52a.41.41,0,0,0-.1.6,3,3,0,1,1-5.32,0,.38.38,0,0,0-.08-.55c-1.19-1.17-2.36-2.36-3.55-3.53-.09-.09-.31-.18-.4-.13a3.06,3.06,0,0,1-3.17-.06l-7.2,7.2a3,3,0,0,1,.45,2A2.87,2.87,0,0,1,4.2,22.22a2.9,2.9,0,0,1-3-.35,3.29,3.29,0,0,1-1.22-2Zm1.13.37A1.9,1.9,0,0,0,3,21.36a1.91,1.91,0,0,0,0-3.81A1.89,1.89,0,0,0,1.13,19.44ZM37.78,3a1.88,1.88,0,0,0-1.91-1.88A1.91,1.91,0,0,0,34,3.05a1.93,1.93,0,0,0,1.9,1.88A1.91,1.91,0,0,0,37.78,3ZM14.41,10A1.9,1.9,0,0,0,16.3,8.09a1.9,1.9,0,1,0-3.8,0A1.89,1.89,0,0,0,14.41,10Zm8.22,8.22a1.9,1.9,0,1,0-1.91-1.89A1.89,1.89,0,0,0,22.63,18.19Z"/><path class="cls-1" d="M0,26.29H6.84V38.91H0ZM5.73,37.77V27.45H1.15V37.77Z"/><path class="cls-1" d="M32.08,11.51h6.8V38.88h-6.8Zm1.09,26.25h4.59V12.65H33.17Z"/><path class="cls-1" d="M10.71,22.2h6.81V38.88H10.71Zm1.1,15.56h4.58V23.33H11.81Z"/><path class="cls-1" d="M21.37,38.89V23h6.82V38.89Zm1.14-14.75V37.76h4.58V24.14Z"/></g></g></svg>